<svg width="14" height="14" viewBox="0 0 14 14" fill="none" xmlns="http://www.w3.org/2000/svg">
<path d="M7.94006 6.98212L13.4667 1.47024C13.5759 1.34304 13.633 1.17943 13.6265 1.0121C13.6201 0.844762 13.5505 0.686029 13.4318 0.567617C13.313 0.449204 13.1539 0.379835 12.9861 0.373372C12.8183 0.366908 12.6543 0.423827 12.5267 0.532752L7.00006 6.04464L1.4734 0.526103C1.34786 0.400903 1.1776 0.330566 1.00006 0.330566C0.822529 0.330566 0.652266 0.400903 0.52673 0.526103C0.401194 0.651303 0.330669 0.821111 0.330669 0.998171C0.330669 1.17523 0.401194 1.34504 0.52673 1.47024L6.06006 6.98212L0.52673 12.494C0.456942 12.5536 0.400262 12.627 0.360247 12.7095C0.320231 12.7919 0.297744 12.8818 0.294198 12.9734C0.290652 13.0649 0.306122 13.1562 0.339638 13.2416C0.373155 13.3269 0.423994 13.4044 0.488963 13.4692C0.553933 13.534 0.631631 13.5847 0.717181 13.6181C0.802731 13.6515 0.894286 13.6669 0.986099 13.6634C1.07791 13.6599 1.168 13.6374 1.25071 13.5975C1.33342 13.5576 1.40697 13.5011 1.46673 13.4315L7.00006 7.91961L12.5267 13.4315C12.6543 13.5404 12.8183 13.5973 12.9861 13.5909C13.1539 13.5844 13.313 13.515 13.4318 13.3966C13.5505 13.2782 13.6201 13.1195 13.6265 12.9521C13.633 12.7848 13.5759 12.6212 13.4667 12.494L7.94006 6.98212Z" fill="#D5B4A8"/>
</svg>
